<svg xmlns="http://www.w3.org/2000/svg" width="150" height="150" viewBox="0 0 150 150">
  <g id="グループ_16118" data-name="グループ 16118" transform="translate(-138 -1909)">
    <g id="楕円形_2" data-name="楕円形 2" transform="translate(138 1909)" fill="#fff" stroke="#707070" stroke-width="1">
      <circle cx="75" cy="75" r="75" stroke="none"/>
      <circle cx="75" cy="75" r="74.5" fill="none"/>
    </g>
    <path id="ear_hearing_icon_135675" d="M73,91.6a9.837,9.837,0,0,1-3.8-.722c-3.55-1.684-6.05-4.235-8.55-11.453C58,71.913,53.3,68.4,48.7,64.983c-3.95-2.936-8.05-5.967-11.6-12.175A29,29,0,0,1,33,38.66C33,25.185,44,14.6,58,14.6S83,25.185,83,38.66H93C93,19.747,77.65,4.974,58,4.974S23,19.747,23,38.66a38.693,38.693,0,0,0,5.35,18.768c4.65,7.94,9.9,11.935,14.25,15.159,4.05,2.984,6.95,5.149,8.55,9.865,3,8.758,6.85,13.667,13.65,17.084A20.622,20.622,0,0,0,73,101.22c11.046,0,20-8.618,20-19.249H83A9.818,9.818,0,0,1,73,91.6M26.2,8.053,19.1,1.22a51.582,51.582,0,0,0,0,74.88l7.05-6.785A42.194,42.194,0,0,1,26.2,8.053M45.5,38.66a12.509,12.509,0,0,0,25,0,12.509,12.509,0,0,0-25,0Z" transform="translate(165 1932.78)"/>
  </g>
</svg>
