<svg xmlns="http://www.w3.org/2000/svg" width="150" height="150" viewBox="0 0 150 150">
  <g id="グループ_16121" data-name="グループ 16121" transform="translate(-993 -1909)">
    <g id="楕円形_5" data-name="楕円形 5" transform="translate(993 1909)" fill="#fff" stroke="#707070" stroke-width="1">
      <circle cx="75" cy="75" r="75" stroke="none"/>
      <circle cx="75" cy="75" r="74.5" fill="none"/>
    </g>
    <g id="outline" transform="translate(1013 1932)">
      <path id="パス_77868" data-name="パス 77868" d="M97.955,5.333H71.364V3.667A1.885,1.885,0,0,0,69.318,2H40.682a1.885,1.885,0,0,0-2.045,1.667V5.333H12.045A1.885,1.885,0,0,0,10,7v93.333A1.885,1.885,0,0,0,12.045,102H97.955A1.885,1.885,0,0,0,100,100.333V7A1.885,1.885,0,0,0,97.955,5.333Zm-55.227,0H67.273v5A1.885,1.885,0,0,1,65.227,12H44.773a1.885,1.885,0,0,1-2.045-1.667Zm2.045,10H87.727V92H22.273V15.333ZM95.909,98.667H14.091v-90H38.636v1.667A4.142,4.142,0,0,0,39.013,12H20.227a1.885,1.885,0,0,0-2.045,1.667v80a1.885,1.885,0,0,0,2.045,1.667H89.773a1.885,1.885,0,0,0,2.045-1.667v-80A1.885,1.885,0,0,0,89.773,12H70.987a4.143,4.143,0,0,0,.376-1.667V8.667H95.909Z" transform="translate(0)"/>
      <path id="パス_77869" data-name="パス 77869" d="M30.29,34.646c4.735,0,9.045-2.225,11.076-5.71a8.544,8.544,0,0,0-1.569-10.6l2.383-2.718a1.481,1.481,0,0,0-.519-2.272,2.37,2.37,0,0,0-2.807.336L36.7,16.134a14.569,14.569,0,0,0-14.156.734c-4.05,2.667-5.593,7.126-3.851,11.124S25.083,34.657,30.29,34.646Zm0-16.667a9.521,9.521,0,0,1,4.011.892l-4.273,4.872L27.645,21.8a2.386,2.386,0,0,0-2.892,0,1.459,1.459,0,0,0,0,2.357l4.091,3.333a2.3,2.3,0,0,0,1.446.488h.168a2.183,2.183,0,0,0,1.5-.693l5.318-6.065a5.72,5.72,0,0,1,1.2,3.425c0,3.682-3.663,6.667-8.182,6.667s-8.182-2.985-8.182-6.667S25.771,17.979,30.29,17.979Z" transform="translate(8.346 7.354)"/>
      <path id="パス_77870" data-name="パス 77870" d="M30.29,48.646c4.735,0,9.045-2.225,11.076-5.71a8.544,8.544,0,0,0-1.569-10.6l2.383-2.718a1.481,1.481,0,0,0-.519-2.272,2.37,2.37,0,0,0-2.807.336L36.7,30.134a14.569,14.569,0,0,0-14.156.734c-4.05,2.667-5.593,7.126-3.851,11.124S25.083,48.657,30.29,48.646Zm0-16.667a9.521,9.521,0,0,1,4.011.892l-4.273,4.872L27.645,35.8a2.386,2.386,0,0,0-2.892,0,1.459,1.459,0,0,0,0,2.357l4.091,3.333a2.3,2.3,0,0,0,1.446.488h.168a2.183,2.183,0,0,0,1.5-.693l5.318-6.065a5.72,5.72,0,0,1,1.2,3.425c0,3.682-3.663,6.667-8.182,6.667s-8.182-2.985-8.182-6.667,3.663-6.667,8.182-6.667Z" transform="translate(8.346 16.687)"/>
      <path id="パス_77871" data-name="パス 77871" d="M30.29,62.646c4.735,0,9.045-2.225,11.076-5.71a8.544,8.544,0,0,0-1.569-10.6l2.383-2.718a1.481,1.481,0,0,0-.519-2.272,2.37,2.37,0,0,0-2.807.336L36.7,44.134a14.569,14.569,0,0,0-14.156.734c-4.05,2.667-5.593,7.126-3.851,11.124S25.083,62.657,30.29,62.646Zm0-16.667a9.521,9.521,0,0,1,4.011.892l-4.273,4.872L27.645,49.8a2.386,2.386,0,0,0-2.892,0,1.459,1.459,0,0,0,0,2.357l4.091,3.333a2.3,2.3,0,0,0,1.446.488h.168a2.183,2.183,0,0,0,1.5-.693l5.318-6.065a5.72,5.72,0,0,1,1.2,3.425c0,3.682-3.663,6.667-8.182,6.667s-8.182-2.985-8.182-6.667,3.663-6.667,8.182-6.667Z" transform="translate(8.346 26.021)"/>
      <path id="パス_77872" data-name="パス 77872" d="M35.045,21.333H53.455A1.885,1.885,0,0,0,55.5,19.667,1.885,1.885,0,0,0,53.455,18H35.045A1.885,1.885,0,0,0,33,19.667,1.885,1.885,0,0,0,35.045,21.333Z" transform="translate(24.045 10.667)"/>
      <path id="パス_77873" data-name="パス 77873" d="M35.045,25.333H53.455A1.885,1.885,0,0,0,55.5,23.667,1.885,1.885,0,0,0,53.455,22H35.045A1.885,1.885,0,0,0,33,23.667,1.885,1.885,0,0,0,35.045,25.333Z" transform="translate(24.045 13.333)"/>
      <path id="パス_77874" data-name="パス 77874" d="M35.045,35.333H53.455A1.885,1.885,0,0,0,55.5,33.667,1.885,1.885,0,0,0,53.455,32H35.045A1.885,1.885,0,0,0,33,33.667,1.885,1.885,0,0,0,35.045,35.333Z" transform="translate(24.045 20)"/>
      <path id="パス_77875" data-name="パス 77875" d="M35.045,39.333H53.455A1.885,1.885,0,0,0,55.5,37.667,1.885,1.885,0,0,0,53.455,36H35.045A1.885,1.885,0,0,0,33,37.667,1.885,1.885,0,0,0,35.045,39.333Z" transform="translate(24.045 22.667)"/>
      <path id="パス_77876" data-name="パス 77876" d="M35.045,49.333H53.455a1.7,1.7,0,1,0,0-3.333H35.045a1.7,1.7,0,1,0,0,3.333Z" transform="translate(24.045 29.333)"/>
      <path id="パス_77877" data-name="パス 77877" d="M35.045,53.333H53.455a1.7,1.7,0,1,0,0-3.333H35.045a1.7,1.7,0,1,0,0,3.333Z" transform="translate(24.045 32)"/>
    </g>
  </g>
</svg>
