<svg xmlns="http://www.w3.org/2000/svg" width="150" height="150" viewBox="0 0 150 150">
  <g id="グループ_16119" data-name="グループ 16119" transform="translate(-423 -1909)">
    <g id="楕円形_3" data-name="楕円形 3" transform="translate(423 1909)" fill="#fff" stroke="#707070" stroke-width="1">
      <circle cx="75" cy="75" r="75" stroke="none"/>
      <circle cx="75" cy="75" r="74.5" fill="none"/>
    </g>
    <g id="website-design-symbol_icon-icons.com_53822" transform="translate(448 1934.364)">
      <path id="パス_77861" data-name="パス 77861" d="M62.924,94.729a4.9,4.9,0,0,1-1.918-3.188l-.65-4.155H39.642l-.652,4.152a4.878,4.878,0,0,1-1.914,3.19c-1.732,1.274-3.1,2.368-1.732,2.554,1.317.178,13.74.016,14.656,0,.918.016,13.338.178,14.654,0C66.02,97.1,64.652,96.006,62.924,94.729Z" transform="translate(0 0.271)"/>
      <g id="グループ_15974" data-name="グループ 15974" transform="translate(25.362 2.636)">
        <path id="パス_77862" data-name="パス 77862" d="M26.666,61.538c5.534-.043,6.223-1.377,8.027-6.933C38.02,45.837,53,56.9,43.717,60.741S21.132,61.581,26.666,61.538Z" transform="translate(-25.362 -2.636)"/>
        <path id="パス_77863" data-name="パス 77863" d="M83.41,3.756c-2.688-2.164-7.135-1.1-9.938,2.38L45.082,46.472c-2.8,3.477-2.789,2.813-.1,4.975s2.038,2.319,4.841-1.158L83.195,13.972C86,10.492,86.1,5.919,83.41,3.756Zm-7.3,4.828a15.431,15.431,0,0,0-1.8-1.589c2.074-3.387,6.15-2.766,6.15-2.766C76.6,6.511,76.109,8.584,76.109,8.584Z" transform="translate(-25.362 -2.636)"/>
      </g>
      <path id="パス_77864" data-name="パス 77864" d="M96,17.386H83.516L78,23.411H94v48.2H6v-48.2h51.19l4.227-6.025H4A4.008,4.008,0,0,0,0,21.4V79.641a4.008,4.008,0,0,0,4,4.016H96a4.008,4.008,0,0,0,4-4.016V21.4A4.008,4.008,0,0,0,96,17.386Z"/>
    </g>
  </g>
</svg>
